<svg xmlns="http://www.w3.org/2000/svg" version="1.1" xmlns:xlink="http://www.w3.org/1999/xlink" xmlns:svgjs="http://svgjs.dev/svgjs" width="2000" height="2024" viewBox="0 0 2000 2024"><g transform="matrix(1,0,0,1,1.4180327868853055,0.8194331983804659)"><svg viewBox="0 0 244 247" data-background-color="#ffffff" preserveAspectRatio="xMidYMid meet" height="2024" width="2000" xmlns="http://www.w3.org/2000/svg" xmlns:xlink="http://www.w3.org/1999/xlink"><g id="tight-bounds" transform="matrix(1,0,0,1,-0.17300000000000182,-0.09999999999999432)"><svg viewBox="0 0 244.34577478991594 247.2" height="247.2" width="244.34577478991594"><g><svg></svg></g><g><svg viewBox="0 0 244.34577478991594 247.2" height="247.2" width="244.34577478991594"><g transform="matrix(1,0,0,1,0,47.215199999999996)"><svg viewBox="0 0 244.34577478991594 152.7696" height="152.7696" width="244.34577478991594"><g><svg viewBox="0 0 244.34577478991594 152.7696" height="152.7696" width="244.34577478991594"><g><svg viewBox="0 0 244.34577478991594 152.7696" height="152.7696" width="244.34577478991594"><g><svg viewBox="0 0 244.34577478991594 152.7696" height="152.7696" width="244.34577478991594"><g id="textblocktransform"><svg viewBox="0 0 244.34577478991594 152.7696" height="152.7696" width="244.34577478991594" id="textblock"><g><svg viewBox="0 0 244.34577478991594 152.7696" height="152.7696" width="244.34577478991594"><g transform="matrix(1,0,0,1,0,0)"><svg width="244.34577478991594" viewBox="1 -35.7 57.1 35.7" height="152.7696" data-palette-color="#c9be8f"><g class="wordmark-text-0" data-fill-palette-color="primary" id="text-0"><path d="M18.25-29.4L18.25 0 10.7 0 10.7-29.4 1-29.4 1-35.7 27.95-35.7 27.95-29.4 18.25-29.4ZM33.45-35.7L44.85-35.7Q51.75-35.7 54.92-32.73 58.1-29.75 58.1-24.55L58.1-24.55Q58.1-22.2 57.4-20.08 56.7-17.95 55.07-16.28 53.45-14.6 50.8-13.65 48.15-12.7 44.25-12.7L44.25-12.7 41-12.7 41 0 33.45 0 33.45-35.7ZM44.45-29.5L44.45-29.5 41-29.5 41-18.9 43.5-18.9Q45.65-18.9 47.2-19.45 48.75-20 49.6-21.2 50.45-22.4 50.45-24.3L50.45-24.3Q50.45-26.95 49-28.23 47.55-29.5 44.45-29.5Z" fill="#c9be8f" data-fill-palette-color="primary"></path></g></svg></g></svg></g></svg></g></svg></g><g></g></svg></g></svg></g></svg></g><path d="M0 41.215L0 1 244.346 1 244.346 41.215 230.569 41.215 230.569 14.777 13.777 14.777 13.777 41.215 0 41.215M0 205.985L0 246.2 244.346 246.2 244.346 205.985 230.569 205.985 230.569 232.423 13.777 232.423 13.777 205.985 0 205.985" fill="#c9be8f" stroke="transparent" data-fill-palette-color="tertiary"></path></svg></g><defs></defs></svg><rect width="244.34577478991594" height="247.2" fill="none" stroke="none" visibility="hidden"></rect></g></svg></g></svg>